<?xml version="1.0" encoding="utf-8"?>
<!-- Generator: Adobe Illustrator 19.2.0, SVG Export Plug-In . SVG Version: 6.00 Build 0)  -->
<svg version="1.1" id="Layer_1" xmlns="http://www.w3.org/2000/svg" xmlns:xlink="http://www.w3.org/1999/xlink" x="0px" y="0px"
	 viewBox="0 0 524 100" style="enable-background:new 0 0 524 100;" xml:space="preserve">
<style type="text/css">
	.st0{fill:url(#SVGID_1_);}
	.st1{fill:url(#SVGID_2_);}
	.st2{fill:url(#SVGID_3_);}
	.st3{fill:url(#SVGID_4_);}
	.st4{fill:url(#SVGID_5_);}
	.st5{fill:url(#SVGID_6_);}
	.st6{fill:url(#SVGID_7_);}
	.st7{fill:url(#SVGID_8_);}
	.st8{enable-background:new    ;}
	.st9{fill:#093343;}
</style>
<radialGradient id="SVGID_1_" cx="64.5" cy="44.2164" r="55.3976" gradientTransform="matrix(1 0 0 -1 0 102)" gradientUnits="userSpaceOnUse">
	<stop  offset="0" style="stop-color:#1475A1"/>
	<stop  offset="0.2233" style="stop-color:#195D7C"/>
	<stop  offset="0.4432" style="stop-color:#144A61"/>
	<stop  offset="0.6511" style="stop-color:#0F3D50"/>
	<stop  offset="0.842" style="stop-color:#0A3546"/>
	<stop  offset="1" style="stop-color:#093343"/>
</radialGradient>
<polygon class="st0" points="60.5,18.4 5,8.5 5,3.9 60.5,15.5 "/>
<radialGradient id="SVGID_2_" cx="64.5" cy="44.2164" r="55.3976" gradientTransform="matrix(1 0 0 -1 0 102)" gradientUnits="userSpaceOnUse">
	<stop  offset="0" style="stop-color:#1475A1"/>
	<stop  offset="0.2233" style="stop-color:#195D7C"/>
	<stop  offset="0.4432" style="stop-color:#144A61"/>
	<stop  offset="0.6511" style="stop-color:#0F3D50"/>
	<stop  offset="0.842" style="stop-color:#0A3546"/>
	<stop  offset="1" style="stop-color:#093343"/>
</radialGradient>
<polygon class="st1" points="60.5,12.1 10.6,2.6 10.6,0.1 60.5,10.6 "/>
<radialGradient id="SVGID_3_" cx="64.5" cy="44.2164" r="55.3976" gradientTransform="matrix(1 0 0 -1 0 102)" gradientUnits="userSpaceOnUse">
	<stop  offset="0" style="stop-color:#1475A1"/>
	<stop  offset="0.2233" style="stop-color:#195D7C"/>
	<stop  offset="0.4432" style="stop-color:#144A61"/>
	<stop  offset="0.6511" style="stop-color:#0F3D50"/>
	<stop  offset="0.842" style="stop-color:#0A3546"/>
	<stop  offset="1" style="stop-color:#093343"/>
</radialGradient>
<polygon class="st2" points="67.6,18.4 123,8.5 123,3.9 67.6,15.5 "/>
<radialGradient id="SVGID_4_" cx="69.8333" cy="44.2164" r="55.3976" fx="32.1242" fy="84.7986" gradientTransform="matrix(1 0 0 -1 0 102)" gradientUnits="userSpaceOnUse">
	<stop  offset="0" style="stop-color:#1475A1"/>
	<stop  offset="0.2233" style="stop-color:#195D7C"/>
	<stop  offset="0.4432" style="stop-color:#144A61"/>
	<stop  offset="0.6511" style="stop-color:#0F3D50"/>
	<stop  offset="0.842" style="stop-color:#0A3546"/>
	<stop  offset="1" style="stop-color:#093343"/>
</radialGradient>
<polygon class="st3" points="67.6,12.1 117.4,2.6 117.4,0.1 67.6,10.6 "/>
<g>
	<g>
		
			<radialGradient id="SVGID_5_" cx="64.5" cy="44.2164" r="55.3976" gradientTransform="matrix(1 0 0 -1 0 102)" gradientUnits="userSpaceOnUse">
			<stop  offset="0" style="stop-color:#1475A1"/>
			<stop  offset="0.2233" style="stop-color:#195D7C"/>
			<stop  offset="0.4432" style="stop-color:#144A61"/>
			<stop  offset="0.6511" style="stop-color:#0F3D50"/>
			<stop  offset="0.842" style="stop-color:#0A3546"/>
			<stop  offset="1" style="stop-color:#093343"/>
		</radialGradient>
		<path class="st4" d="M67.6,20.9v78.9l59-13.7V11.9L67.6,20.9z M106.8,73.1c-1.5,0.2-3.6,0.6-3.6,0.5c-0.1-0.5-0.3-1-0.5-1.5
			c-0.1-0.3-0.3-0.6-0.6-0.9c-0.2-0.3-0.6-0.6-1-0.8c-0.5-0.2-1-0.2-1.4-0.2s-0.7,0.1-1,0.2l-1.5,0.4l-0.3,0.1h-0.3h-0.1
			c0-0.1,0-0.2-0.1-0.3c-0.1-0.4-0.1-0.8,0-1.2c0-0.9,0.1-1.8,0.1-2.9c0-0.3,0-0.5-0.2-0.9c0-0.1-0.1-0.2-0.1-0.2l0,0v-0.1l0,0
			l-0.1-0.1c-0.1-0.2-0.2-0.3-0.3-0.4c-0.4-0.5-0.9-0.9-1.4-1.3c-0.5-0.3-1-0.6-1.5-0.8s-1-0.4-1.6-0.6h-0.1H91
			C90.1,62,89.3,62,88.4,62c-0.4,0-0.9,0-1.3,0c-0.5,0.1-0.9,0.2-1.3,0.3c-0.9,0.3-1.8,0.7-2.5,1.4c-0.3,0.4-0.5,0.8-0.5,1.3
			c0,0.4,0.2,0.8,0.5,1.1c-0.2-0.8,0.2-1.4,0.8-1.7c0.6-0.3,1.3-0.3,2.1-0.3c0.4,0,0.8,0.1,1.1,0.1c0.4,0,0.8-0.1,1.2,0
			c0.7,0,1.5,0.1,2.2,0.1c0.4,0.1,0.8,0.3,1.2,0.5c0.4,0.2,0.8,0.4,1.2,0.7c0.4,0.2,0.7,0.5,0.8,0.7c0.1,0.1,0.1,0.1,0.1,0.2l0,0
			l0,0l0,0c0,0.1,0,0.1,0,0.1c0,0.1,0.1,0.3,0.1,0.5c0.1,0.8,0,1.7-0.1,2.7c0,0.5,0,1,0.1,1.6c0,0.3,0.1,0.6,0.3,1
			c0,0,0.1,0.1,0.1,0.2c-0.8,0.3-1.6,0.8-2.3,1.3c-0.4,0.2-0.8,0.5-1.2,0.7l-0.5,0.2c-0.2,0.1-0.4,0.1-0.6,0.2
			c-0.8,0.2-1.6,0.3-2.4,0.3C86,75.3,85,75.3,85,75.3v0.2c0,0,0.9,0.3,2.4,0.6c0.7,0.1,1.6,0.3,2.7,0.2c0.3,0,0.5,0,0.8-0.1
			s0.6-0.1,0.8-0.2c0.5-0.2,1-0.3,1.4-0.5c1.5-0.5,2.7-1.3,3.7-2l0.5-0.1l0.5-0.1c0.6-0.1,1.1-0.3,1.5-0.4c0.2-0.1,0.4-0.1,0.5-0.1
			s0.2,0,0.2,0s0.3,0.2,0.4,0.5c0.2,0.3,0,3.4,1.9,4.5c0.7,0.3,1.4,0.5,1.9,0.5c-0.2,0.3-0.3,0.9-0.5,1.5c-0.4,2.2-1,5.6-8,6.8
			c-1,0.2-2.5,0.5-3.5,0.7c-0.6,1.5-2.3,3.5-5.6,3.5c-2.4,0-5.3-1-8.6-3L77.7,87l0.1-0.7c0,0,0.6-3.9,0-6.1c-0.1-0.4-0.3-1-0.4-1.6
			c0.5,0.7,1,1.3,1.1,1.3c0.5,0.4,1.2,1,2.2,1.6s2.1,1.3,3.6,1.7c0.7,0.2,1.6,0.3,2.4,0.2l0.6-0.1c0.2,0,0.3-0.1,0.5-0.1
			c0.4-0.1,0.7-0.2,1-0.3c1.4-0.3,2.8-0.5,4.2-0.9c1.3-0.3,2.6-0.8,3.5-1.4c0.4-0.3,0.8-0.7,1-1c0.3-0.3,0.4-0.7,0.4-1
			c0.1-0.3,0.1-0.5,0.1-0.7c0-0.1,0-0.2,0-0.2s0,0.1-0.1,0.2c0,0.1-0.1,0.4-0.2,0.6c-0.1,0.3-0.3,0.6-0.5,0.9s-0.6,0.6-1.1,0.8
			c-0.9,0.5-2.1,0.8-3.4,1s-2.8,0.3-4.3,0.5c-0.4,0.1-0.8,0.1-1.1,0.2c-0.2,0-0.4,0.1-0.5,0.1l-0.4,0.1c-0.6,0-1.2-0.1-1.7-0.3
			c-1.1-0.4-2.1-1.1-2.9-1.7s-4.4-5.3-4.8-5.7l-0.1-0.1c0-1.8,0.1-3.4,0.6-4.5c0.7-1.5,0.7-7.2,0.4-9.4c1.1-0.5,6.5-3.7,7.6-4.4
			c1.2-0.7,2.3-1.5,3.4-2.4c0.5-0.5,1.1-1,1.6-1.5c0.2-0.2,0.3-0.4,0.5-0.6c0.8,0.3,1.7,0.6,2.6,0.8c0.8,0.2,1.6,0.5,2.4,0.7
			s1.6,0.4,2.4,0.7c0.4,0.1,0.8,0.2,1.1,0.4c0.3,0.1,0.6,0.3,0.7,0.4c0.3,0.2,0.5,0.9,0.5,1.6c0.1,1.3-0.2,2.7-0.4,3.8
			c-0.2,1.1-0.7,3.8-0.7,3.8s0.8-1.4,1.7-3.6c0.2-0.6,0.4-1.2,0.6-1.8c0.2-0.7,0.4-1.4,0.4-2.1c0-0.8,0.1-1.6-0.6-2.7
			c-0.4-0.5-0.9-0.8-1.3-1s-0.9-0.4-1.3-0.6c-1.7-0.7-3.4-1.1-5-1.5c-0.9-0.2-1.7-0.3-2.5-0.5c0-0.2,0-0.3,0-0.5
			c0-0.1,0-0.3-0.1-0.4c-0.1-0.3-0.1-0.7-0.2-1c-0.2-0.6-0.5-1.1-0.8-1.6c-0.6-0.9-1.3-1.5-1.8-1.9c-0.3-0.2-0.5-0.3-0.7-0.4
			C87.8,44,87.7,44,87.7,44s0.3,0.2,0.6,0.7c0.3,0.5,0.7,1.2,0.9,2.1c0.1,0.4,0.2,0.9,0.3,1.4c0,0.3,0,0.5,0,0.7c0,0.1,0,0.3,0,0.4
			l0,0c-1.2-0.2-2.2-0.4-2.9-0.6c-0.8-0.1-1.1-0.5-1.1-0.5s0,0.1,0.1,0.3s0.3,0.4,0.7,0.7c0.5,0.4,1.3,0.8,2.3,1.2l-0.1,0.1
			c-0.4,0.4-0.9,0.9-1.5,1.3c-1,0.9-2.1,1.7-3.1,2.5c-0.9,0.7-5,3.3-6.6,4.4c-0.4-2-0.4-3.9,0.1-5.6c0.6-1.9,0.7-9.9,0.3-11.9
			c-0.1-0.3-0.1-0.6-0.2-0.8c1.1-0.1,2.2-0.2,2.4-0.2c0.5-0.1,1.2-0.3,1.8-0.5c0.3-0.1,0.6-0.3,0.9-0.4c0.3-0.2,0.5-0.4,0.7-0.6
			c0.1-0.1,0.1-0.2,0.1-0.3s0-0.2,0-0.2c0-0.1,0-0.2,0-0.2s0,0.1-0.1,0.2c0,0.1-0.1,0.1-0.1,0.2c0,0.1-0.1,0.1-0.2,0.2
			c-0.2,0.1-0.4,0.1-0.7,0.2c-0.3,0-0.6,0-0.8,0c-0.6,0-1.2-0.2-1.6-0.2c-0.1,0-1.8-0.4-2.9-0.7c0-0.8,0.1-1.6,0.5-2.6
			c0.3-0.5-0.1-1.2-0.8-2.2c-0.7-1.1-1.6-2.5-0.4-3.8c0.4-0.5,2.2-2.7,5.2-2.7c0.8,0,1.6,0.2,2.4,0.5c1.6,0.7,2.6,1.2,3.2,1.6
			c0.3-0.1,0.6-0.1,1-0.1c1.5,0,4.3,0.6,6.1,4.8c-1.4-0.1-2.6-0.2-2.8-0.1c-0.5,0.1-1,0.3-1.4,0.6c-0.1-0.2-0.2-0.4-0.3-0.6
			c-0.2-0.4-0.5-0.7-0.7-1c-0.2-0.2-0.5-0.4-0.6-0.5c-0.2-0.1-0.2-0.1-0.2-0.1s0.2,0.3,0.4,0.9c0.1,0.3,0.2,0.6,0.2,1s0,0.8-0.1,1.2
			c-0.2,0.4-0.4,0.5-0.9,0.7c-0.3,0.1-0.6,0.3-0.9,0.4l0,0C86.5,36,85.8,36,85.2,36c-0.8,0-1.6-0.1-2.2-0.1c-0.7,0-1.2,0-1.6,0.1
			s-0.5,0.4-0.5,0.3c0,0,0.1-0.2,0.5-0.3s0.9,0,1.5,0.1s1.4,0.3,2.2,0.4c0.3,0,0.6,0.1,0.9,0.1c-0.1,0.1-0.1,0.3-0.1,0.5
			c0,0.6,0.3,1,0.3,1c1.3,0.8,0,1.4-0.4,1.9c-0.5,0.5-1,1-1.4,1.6c-0.5,0.6-0.9,1.2-1.3,1.9c-0.1,0.2-0.2,0.4-0.2,0.6l-0.1,0.3v0.2
			c0,0.3-0.1,0.5-0.1,0.8c-0.1,0.6-0.3,1.1-0.4,1.6c-0.3,1-0.4,1.9-0.3,2.6c0.1,0.7,0.4,0.9,0.4,0.9s0-0.1,0-0.2
			c0-0.2,0-0.4,0.1-0.7c0.2-0.6,0.6-1.3,1.1-2.2c0.3-0.5,0.6-1,0.8-1.6c0.1-0.3,0.3-0.7,0.4-1l0.1-0.2l0.1-0.1
			c0-0.1,0.1-0.2,0.2-0.3c0.3-0.4,0.7-0.9,1.2-1.4s1-1,1.5-1.6c0.3-0.3,0.5-0.6,0.7-0.9c0.2-0.4,0.5-0.7,0.6-1.3v-0.2
			c0-0.1,0-0.2,0-0.4S89,37.8,89,37.8l-0.1-0.1v-0.1l0,0l-0.1-0.2l0,0l0,0c0,0-0.3-0.8-0.1-1l0,0c0.3-0.1,0.6-0.2,0.8-0.3
			c0.1-0.1,0.3-0.2,0.3-0.2l0.3-0.2c0.2-0.1,0.3-0.2,0.4-0.3c0.6-0.3,1.2-0.5,1.7-0.5c0.3,0,4.1,0.4,6.4,0.7c2,1.4,3.9,3.3,3.9,5.2
			c1.1,1.2,4.3,5,3.8,7.9c-0.1,0.1-0.3,0.1-0.4,0.2c-0.3,0.1-0.7,0.1-1,0.1c-0.4-0.1-0.7-0.2-1-0.5s-0.6-0.7-0.9-1.1
			c-0.3-0.5-2.3-0.6-2.6-1.2c-0.3-0.6-0.6-1.2-1-1.7c-0.4-0.6-0.7-1.2-1.2-1.8c-0.2-0.3-0.5-0.6-0.9-1s-1.2-0.6-1.7-0.6
			c-0.3,0-0.5,0-0.7,0c0.1,0-0.1,0-0.1,0l0,0c-0.2,0-0.4-0.2-0.6-0.3c-0.5-0.3-0.9-0.7-1.2-1c-0.3-0.4-0.4-0.7-0.4-0.9
			s0.3-0.5,0.7-0.6c0.4-0.1,0.8-0.2,1.1-0.3c0.7-0.1,1.1-0.1,1.1-0.1s-0.1,0-0.3-0.1c-0.2-0.1-0.4-0.1-0.8-0.2
			c-0.3-0.1-0.8-0.1-1.3-0.1c-0.3,0-0.6,0.1-0.9,0.2c-0.3,0.1-0.7,0.4-0.9,0.7c-0.5,0.7-0.3,1.5,0.1,2.2c0.3,0.6,0.8,1.2,1.4,1.8
			c0.3,0.3,0.7,0.5,1.2,0.7c0.1,0,0.3,0.1,0.5,0.1s0.1,0,0.4,0c0.2,0,0.3,0,0.4,0c0.2,0,0.2,0.1,0.4,0.2c0.1,0.1,0.3,0.3,0.5,0.6
			c0.7,1,1.5,2.3,2.2,3.3c0.4,0.5,2.5,0.8,3,1.2c0.5,0.5,1,0.9,1.6,1.2s1.3,0.4,1.9,0.3c0.6-0.1,1-0.4,1.2-0.6l0,0
			c0.6,1.2,2.2,4.5,2.1,6.7c0.4,1.4,2.1,8.1-0.8,11.6C107.3,68.7,107.3,71,106.8,73.1z"/>
		
			<radialGradient id="SVGID_6_" cx="64.5" cy="44.2164" r="55.3976" gradientTransform="matrix(1 0 0 -1 0 102)" gradientUnits="userSpaceOnUse">
			<stop  offset="0" style="stop-color:#1475A1"/>
			<stop  offset="0.2233" style="stop-color:#195D7C"/>
			<stop  offset="0.4432" style="stop-color:#144A61"/>
			<stop  offset="0.6511" style="stop-color:#0F3D50"/>
			<stop  offset="0.842" style="stop-color:#0A3546"/>
			<stop  offset="1" style="stop-color:#093343"/>
		</radialGradient>
		<path class="st5" d="M84.7,70.5c0.3,0.1,0.7,0.1,1,0.1s0.7,0,1,0c0.6,0,1.3-0.1,1.8-0.2c0.6-0.1,1.1-0.2,1.5-0.2
			c0.2,0,0.4,0,0.5,0s0.2,0.1,0.3,0.2c0.2,0.2,0.2,0.3,0.2,0.3s0.1-0.1,0-0.4c0-0.1-0.1-0.3-0.3-0.5c-0.2-0.1-0.5-0.2-0.7-0.3
			c-1-0.1-2.3-0.1-3.5,0c-0.3,0-0.6,0-0.9,0s-0.6,0-0.8,0c-0.5,0-0.9-0.2-1.2-0.4c-0.3-0.2-0.4-0.5-0.5-0.7S83,68,83,68
			s-0.1,0.1-0.2,0.4c-0.1,0.2-0.1,0.7,0.2,1.1C83.4,70.1,84.1,70.4,84.7,70.5z"/>
	</g>
</g>
<g>
	<g>
		
			<radialGradient id="SVGID_7_" cx="64.5" cy="44.2164" r="55.3976" gradientTransform="matrix(1 0 0 -1 0 102)" gradientUnits="userSpaceOnUse">
			<stop  offset="0" style="stop-color:#1475A1"/>
			<stop  offset="0.2233" style="stop-color:#195D7C"/>
			<stop  offset="0.4432" style="stop-color:#144A61"/>
			<stop  offset="0.6511" style="stop-color:#0F3D50"/>
			<stop  offset="0.842" style="stop-color:#0A3546"/>
			<stop  offset="1" style="stop-color:#093343"/>
		</radialGradient>
		<path class="st6" d="M1.5,11.9v74.2l59,13.7V20.9L1.5,11.9z M50.2,35.2c0.5,1,0.6,1.8,0.5,2.6c-1.1,0.3-2.8,0.6-2.9,0.7
			c-0.4,0.1-1,0.2-1.6,0.2c-0.3,0-0.6,0-0.8,0s-0.5-0.1-0.7-0.2c-0.1,0-0.2-0.1-0.2-0.2c-0.1-0.1-0.1-0.1-0.1-0.2
			c0-0.1-0.1-0.2-0.1-0.2s0,0.1,0,0.2c0,0.1,0,0.1,0,0.2c0,0.1,0,0.2,0.1,0.3c0.1,0.2,0.4,0.4,0.7,0.6c0.3,0.2,0.6,0.3,0.9,0.4
			c0.6,0.2,1.3,0.4,1.8,0.5c0.1,0,1.3,0.1,2.4,0.2c-0.1,0.4-0.2,0.7-0.2,1c-0.4,1.9-0.3,10,0.3,11.9c0.5,1.7,0.6,3.5,0.2,5.6
			c-1.6-1.1-5.7-3.7-6.6-4.4c-1-0.8-2.1-1.7-3.1-2.5c-0.5-0.4-1-0.9-1.5-1.3l-0.1-0.1c1-0.4,1.8-0.8,2.3-1.2
			c0.3-0.2,0.6-0.5,0.7-0.7c0.1-0.2,0.1-0.4,0.1-0.3c0,0-0.3,0.3-1.1,0.5c-0.7,0.2-1.7,0.4-2.9,0.6l0,0c0-0.1,0-0.3,0-0.4
			c0-0.2,0-0.5,0-0.7c0.1-0.5,0.1-1,0.3-1.4c0.3-0.9,0.6-1.6,0.9-2.1c0.3-0.5,0.6-0.7,0.6-0.7s-0.1,0-0.3,0.1s-0.4,0.2-0.7,0.4
			c-0.5,0.4-1.2,1-1.8,1.9c-0.3,0.5-0.6,1-0.8,1.6c-0.1,0.3-0.2,0.6-0.2,1c0,0.1,0,0.3-0.1,0.4c0,0.2,0,0.3,0,0.5
			c-0.8,0.1-1.6,0.3-2.5,0.5c-1.6,0.3-3.3,0.8-5,1.5c-0.4,0.2-0.8,0.4-1.3,0.6c-0.4,0.2-0.9,0.5-1.3,1c-0.7,1-0.6,1.9-0.5,2.7
			s0.2,1.5,0.4,2.2c0.2,0.7,0.4,1.3,0.6,1.8c0.9,2.2,1.7,3.6,1.7,3.6s-0.5-2.7-0.7-3.8s-0.4-2.4-0.4-3.8c0-0.6,0.2-1.4,0.5-1.6
			c0.1-0.1,0.4-0.3,0.7-0.4c0.3-0.1,0.7-0.3,1.1-0.4c0.8-0.2,1.6-0.4,2.4-0.7c0.8-0.2,1.6-0.4,2.4-0.7c0.9-0.3,1.8-0.6,2.6-0.8
			c0.2,0.2,0.3,0.4,0.5,0.6c0.5,0.5,1,1,1.6,1.5c1.1,0.9,2.3,1.7,3.5,2.4c1.1,0.7,6.6,3.9,7.6,4.4c-0.3,2.2-0.3,7.9,0.4,9.4
			c0.5,1,0.7,2.7,0.7,4.5l-0.1,0.1c-0.4,0.4-4,5.1-4.8,5.7s-1.7,1.3-2.9,1.7c-0.6,0.2-1.1,0.3-1.7,0.3l-0.4-0.1
			c-0.2,0-0.4-0.1-0.5-0.1C40.5,82,40,82,39.7,81.9c-1.5-0.2-2.9-0.3-4.3-0.5c-1.3-0.2-2.5-0.5-3.4-1c-0.5-0.2-0.8-0.5-1.1-0.8
			c-0.3-0.3-0.4-0.6-0.5-0.9s-0.1-0.5-0.2-0.6c0-0.1-0.1-0.2-0.1-0.2s0,0.1,0,0.2s0,0.4,0.1,0.7c0.1,0.3,0.2,0.6,0.4,1
			c0.2,0.4,0.6,0.7,1,1c0.9,0.6,2.2,1.1,3.5,1.4s2.8,0.6,4.2,0.9c0.3,0.1,0.7,0.1,1,0.3c0.2,0,0.3,0.1,0.5,0.1l0.6,0.1
			c0.9,0.1,1.7,0,2.4-0.2c1.5-0.4,2.6-1.1,3.6-1.6c0.9-0.6,1.7-1.2,2.2-1.6c0.1-0.1,0.5-0.6,1.1-1.3c-0.1,0.6-0.2,1.2-0.4,1.6
			c-0.7,2.1,0,6,0,6.1l0.1,0.7l-0.6,0.4c-3.3,2-6.2,3-8.6,3c-3.3,0-5-2-5.6-3.5c-1-0.2-2.5-0.5-3.5-0.7c-7-1.3-7.6-4.6-8-6.9
			c-0.1-0.7-0.2-1.2-0.5-1.5c0.6,0,1.2-0.2,1.9-0.5c2-1.1,1.8-4.1,1.9-4.5C27.7,72.3,28,72,28,72s0.1,0,0.2,0s0.3,0,0.5,0.1
			c0.4,0.1,1,0.3,1.5,0.4l0.5,0.1l0.5,0.1c1,0.7,2.2,1.5,3.7,2c0.5,0.2,0.9,0.3,1.4,0.5c0.2,0.1,0.5,0.2,0.8,0.2s0.6,0.1,0.8,0.1
			c1,0,1.9-0.1,2.7-0.2c1.5-0.3,2.4-0.6,2.4-0.6v-0.2c0,0-1,0-2.5-0.1c-0.7-0.1-1.6-0.1-2.4-0.3c-0.2,0-0.4-0.1-0.6-0.2L37,73.7
			c-0.4-0.2-0.8-0.4-1.2-0.7c-0.7-0.5-1.5-0.9-2.3-1.3c0-0.1,0.1-0.1,0.1-0.2c0.2-0.4,0.2-0.7,0.3-1c0.1-0.6,0.1-1.1,0.1-1.6
			c0-1-0.1-1.9-0.1-2.7c0-0.2,0.1-0.4,0.1-0.5v-0.1l0,0l0,0l0,0c0-0.1,0-0.1,0.1-0.2c0.2-0.2,0.5-0.5,0.8-0.7
			c0.4-0.2,0.8-0.5,1.2-0.6c0.4-0.2,0.8-0.3,1.2-0.5c0.7-0.1,1.5-0.1,2.2-0.1c0.4,0,0.8,0,1.2,0s0.8-0.1,1.1-0.1
			c0.7,0,1.5,0.1,2.1,0.3c0.6,0.3,0.9,0.9,0.8,1.7c0.2-0.3,0.4-0.7,0.4-1.1S45,63.4,44.6,63c-0.6-0.8-1.6-1.1-2.5-1.4
			c-0.4-0.1-0.9-0.3-1.3-0.3c-0.5,0-0.9,0-1.3,0c-0.9,0-1.8,0.1-2.6,0.1h-0.2h-0.1C36,61.6,35.5,61.8,35,62c-0.5,0.2-1,0.5-1.5,0.8
			s-1,0.7-1.4,1.3c-0.1,0.1-0.2,0.3-0.3,0.4l0.2,0.4l0,0V65l0,0c0,0.1,0,0.1-0.1,0.2c-0.1,0.4-0.1,0.6-0.2,0.9c-0.1,1.1,0,2,0.1,2.9
			c0,0.4,0,0.9,0,1.2c0,0.1,0,0.2-0.1,0.3h-0.1h-0.3L31,70.4L29.5,70c-0.3-0.1-0.6-0.1-1-0.2c-0.4,0-0.9,0-1.4,0.2s-0.8,0.5-1,0.8
			c-0.3,0.3-0.4,0.5-0.6,0.9c-0.3,0.5-0.4,1-0.5,1.5c0,0.2-2.1-0.2-3.6-0.5c-0.4-2.1-0.5-4.4-0.5-5.4C18,63.9,19.7,57.2,20,55.8
			c-0.1-2.2,1.4-5.5,2.1-6.7l0,0c0.3,0.2,0.7,0.5,1.3,0.6c0.6,0.1,1.3,0,1.9-0.3s1.2-0.7,1.6-1.2c0.5-0.5,2.6-0.7,3-1.2
			c0.8-1.1,1.5-2.3,2.2-3.3c0.2-0.3,0.4-0.5,0.5-0.6s0.1-0.1,0.4-0.2c0.1,0,0.3,0,0.4,0c0.3,0,0.2,0,0.4,0s0.4-0.1,0.5-0.1
			c0.5-0.2,0.9-0.4,1.2-0.7c0.6-0.5,1.1-1.1,1.4-1.7c0.3-0.6,0.5-1.4,0.1-2.2c-0.2-0.4-0.6-0.6-0.9-0.7c-0.3-0.1-0.6-0.2-0.9-0.2
			c-0.5,0-1,0-1.3,0.1s-0.6,0.1-0.8,0.2c-0.2,0.1-0.3,0.1-0.3,0.1s0.4,0,1.1,0.1c0.3,0.1,0.7,0.1,1.1,0.3c0.4,0.1,0.7,0.4,0.7,0.6
			c0,0.2-0.1,0.6-0.4,0.9c-0.3,0.4-0.7,0.7-1.2,1c-0.2,0.1-0.5,0.3-0.6,0.3s0,0,0,0s-0.2,0-0.1,0c-0.2,0-0.4,0-0.7,0
			c-0.5,0-1.3,0.3-1.7,0.6c-0.4,0.3-0.7,0.7-0.9,1c-0.5,0.6-0.8,1.2-1.2,1.8c-0.3,0.6-0.7,1.2-1,1.7c-0.3,0.6-2.3,0.7-2.6,1.2
			c-0.3,0.5-0.6,0.8-0.9,1.1s-0.7,0.4-1,0.5c-0.4,0.1-0.7,0-1-0.1c-0.2-0.1-0.3-0.1-0.4-0.2c-0.5-2.9,2.7-6.7,3.8-7.9
			c0-2,1.9-3.8,3.9-5.2c2.3-0.3,6.1-0.7,6.4-0.7c0.5,0,1.1,0.2,1.7,0.5c0.1,0.1,0.3,0.2,0.4,0.3l0.3,0.2c0.1,0.1,0.2,0.1,0.3,0.2
			c0.3,0.1,0.5,0.2,0.8,0.3l0,0c0.3,0.2-0.1,1-0.1,1l0,0l0,0l-0.1,0.2l0,0v0.1l-0.1,0.1c0,0-0.2,0.3-0.2,0.6c0,0.1,0,0.3,0,0.4v0.2
			c0.1,0.6,0.4,1,0.6,1.3c0.2,0.3,0.5,0.6,0.7,0.9c0.5,0.6,1,1.1,1.5,1.6s0.9,1,1.2,1.4c0.1,0.1,0.1,0.2,0.2,0.3l0.1,0.1l0.1,0.2
			c0.1,0.3,0.2,0.7,0.4,1c0.2,0.6,0.5,1.1,0.8,1.6c0.5,0.9,1,1.7,1.1,2.2c0.1,0.3,0.1,0.5,0.1,0.7s0,0.2,0,0.2s0.3-0.3,0.4-0.9
			c0.1-0.6,0-1.6-0.3-2.6c-0.1-0.5-0.2-1-0.4-1.6c-0.1-0.3-0.1-0.5-0.1-0.8v-0.2l-0.1-0.3c0-0.2-0.1-0.4-0.2-0.6
			c-0.4-0.7-0.8-1.3-1.3-1.9c-0.5-0.6-1-1.1-1.4-1.6c-0.5-0.5-1.7-1.1-0.4-1.9c0,0,0.4-0.5,0.3-1c0-0.2-0.1-0.3-0.1-0.5
			c0.3,0,0.6-0.1,0.9-0.1c0.8-0.1,1.6-0.3,2.2-0.4c0.6-0.1,1.2-0.2,1.5-0.1c0.4,0.1,0.5,0.3,0.5,0.3s-0.1-0.2-0.5-0.3
			s-0.9-0.2-1.6-0.1c-0.7,0-1.4,0.1-2.2,0.1c-0.6,0-1.3,0-1.9-0.1l0,0c-0.3-0.1-0.6-0.3-0.9-0.4c-0.5-0.2-0.7-0.4-0.9-0.7
			c-0.4-0.6-0.5-1-0.4-1.4c0.1-0.4,0.1-0.7,0.2-1c0.2-0.6,0.4-0.9,0.4-0.9s-0.1,0.1-0.2,0.1c-0.1,0.1-0.4,0.3-0.6,0.5
			c-0.2,0.2-0.5,0.6-0.7,1c-0.1,0.2-0.2,0.4-0.3,0.6c-0.5-0.3-1-0.5-1.4-0.6c-0.3-0.1-1.5,0-2.8,0.1c1.7-4.2,4.5-4.8,6.1-4.8
			c0.4,0,0.7,0,1,0.1c0.6-0.4,1.5-0.9,3.2-1.6c0.8-0.3,1.6-0.5,2.4-0.5c3,0,4.8,2.2,5.2,2.7c1.2,1.2,0.3,2.7-0.4,3.8
			C50.4,33.9,50,34.6,50.2,35.2z"/>
		
			<radialGradient id="SVGID_8_" cx="64.5" cy="44.2164" r="55.3976" gradientTransform="matrix(1 0 0 -1 0 102)" gradientUnits="userSpaceOnUse">
			<stop  offset="0" style="stop-color:#1475A1"/>
			<stop  offset="0.2233" style="stop-color:#195D7C"/>
			<stop  offset="0.4432" style="stop-color:#144A61"/>
			<stop  offset="0.6511" style="stop-color:#0F3D50"/>
			<stop  offset="0.842" style="stop-color:#0A3546"/>
			<stop  offset="1" style="stop-color:#093343"/>
		</radialGradient>
		<path class="st7" d="M45.1,67.9c0,0,0,0.1-0.1,0.4c-0.1,0.2-0.2,0.5-0.5,0.7s-0.7,0.3-1.2,0.4c-0.3,0-0.5,0-0.8,0s-0.6,0-0.9,0
			c-1.2,0-2.5-0.1-3.5,0c-0.3,0-0.5,0.1-0.7,0.3c-0.3,0-0.4,0.2-0.4,0.3c0,0.3,0,0.4,0,0.4s0.1-0.1,0.2-0.3c0.1-0.1,0.2-0.2,0.3-0.2
			s0.3,0,0.5,0c0.5,0.1,1,0.2,1.5,0.2c0.6,0.1,1.2,0.1,1.8,0.2c0.3,0,0.6,0,1,0c0.3,0,0.7-0.1,1-0.1c0.6-0.1,1.3-0.4,1.6-0.9
			c0.3-0.4,0.3-0.9,0.2-1.1C45.1,68,45.1,67.9,45.1,67.9z"/>
	</g>
</g>
<g>
	<g class="st8">
		<path class="st9" d="M151.3,31.7h9.2c4.3,0,7.4,0.6,9.4,1.9c1.9,1.3,2.9,3.3,2.9,6.1c0,1.9-0.5,3.5-1.6,4.8
			c-1.1,1.3-2.6,2.1-4.7,2.4v0.2c4.9,0.8,7.4,3.4,7.4,7.8c0,2.9-1,5.2-2.9,6.8s-4.7,2.4-8.2,2.4h-11.3V31.7z M155.1,45.6h6.2
			c2.7,0,4.6-0.4,5.8-1.3s1.8-2.3,1.8-4.2c0-1.8-0.7-3.1-2-3.9c-1.3-0.8-3.4-1.2-6.2-1.2h-5.6V45.6z M155.1,48.8V61h6.8
			c2.6,0,4.6-0.5,5.9-1.5c1.3-1,2-2.6,2-4.8c0-2-0.7-3.5-2-4.5s-3.4-1.4-6.2-1.4H155.1z"/>
		<path class="st9" d="M183.7,39.8v15.8c0,2,0.5,3.5,1.4,4.5c0.9,1,2.3,1.5,4.3,1.5c2.6,0,4.4-0.7,5.6-2.1s1.8-3.7,1.8-6.8V39.8h3.7
			v24.4h-3l-0.5-3.3h-0.2c-0.8,1.2-1.8,2.1-3.1,2.8c-1.3,0.6-2.9,1-4.6,1c-3,0-5.2-0.7-6.7-2.1c-1.5-1.4-2.2-3.7-2.2-6.8v-16H183.7z
			"/>
		<path class="st9" d="M207.9,33.2c0-0.8,0.2-1.5,0.6-1.9c0.4-0.4,0.9-0.6,1.6-0.6c0.6,0,1.1,0.2,1.5,0.6s0.6,1,0.6,1.8
			s-0.2,1.5-0.6,1.9c-0.4,0.4-0.9,0.6-1.5,0.6c-0.6,0-1.1-0.2-1.6-0.6C208.1,34.6,207.9,34,207.9,33.2z M211.9,64.2h-3.7V39.8h3.7
			V64.2z"/>
		<path class="st9" d="M223.4,64.2h-3.7V29.6h3.7V64.2z"/>
		<path class="st9" d="M247.9,60.9h-0.2c-1.7,2.5-4.3,3.7-7.7,3.7c-3.2,0-5.7-1.1-7.4-3.3c-1.8-2.2-2.7-5.3-2.7-9.3
			c0-4,0.9-7.1,2.7-9.4c1.8-2.2,4.3-3.3,7.4-3.3c3.3,0,5.8,1.2,7.6,3.6h0.3l-0.2-1.8l-0.1-1.7v-9.9h3.7v34.6h-3L247.9,60.9z
			 M240.5,61.5c2.5,0,4.4-0.7,5.5-2.1s1.7-3.6,1.7-6.6v-0.8c0-3.5-0.6-5.9-1.7-7.4c-1.1-1.5-3-2.2-5.5-2.2c-2.2,0-3.8,0.8-5,2.5
			c-1.1,1.7-1.7,4.1-1.7,7.1c0,3.1,0.6,5.5,1.7,7.1C236.6,60.7,238.3,61.5,240.5,61.5z"/>
		<path class="st9" d="M258.9,33.2c0-0.8,0.2-1.5,0.6-1.9c0.4-0.4,0.9-0.6,1.6-0.6c0.6,0,1.1,0.2,1.5,0.6s0.6,1,0.6,1.8
			s-0.2,1.5-0.6,1.9c-0.4,0.4-0.9,0.6-1.5,0.6c-0.6,0-1.1-0.2-1.6-0.6C259.1,34.6,258.9,34,258.9,33.2z M262.9,64.2h-3.7V39.8h3.7
			V64.2z"/>
		<path class="st9" d="M287.4,64.2V48.4c0-2-0.5-3.5-1.4-4.5c-0.9-1-2.3-1.5-4.3-1.5c-2.6,0-4.4,0.7-5.6,2.1s-1.8,3.7-1.8,6.8v12.8
			h-3.7V39.8h3l0.6,3.3h0.2c0.8-1.2,1.8-2.1,3.2-2.8c1.4-0.7,2.9-1,4.6-1c2.9,0,5.1,0.7,6.6,2.1c1.5,1.4,2.2,3.7,2.2,6.8v15.9H287.4
			z"/>
		<path class="st9" d="M318.6,39.8v2.3l-4.5,0.5c0.4,0.5,0.8,1.2,1.1,2s0.5,1.8,0.5,2.8c0,2.4-0.8,4.3-2.4,5.7
			c-1.6,1.4-3.9,2.1-6.7,2.1c-0.7,0-1.4-0.1-2-0.2c-1.6,0.8-2.4,1.9-2.4,3.1c0,0.7,0.3,1.2,0.8,1.5c0.5,0.3,1.5,0.5,2.8,0.5h4.3
			c2.6,0,4.7,0.6,6.1,1.7c1.4,1.1,2.1,2.7,2.1,4.9c0,2.7-1.1,4.8-3.2,6.2c-2.2,1.4-5.3,2.1-9.5,2.1c-3.2,0-5.6-0.6-7.4-1.8
			c-1.7-1.2-2.6-2.9-2.6-5c0-1.5,0.5-2.8,1.4-3.8c0.9-1.1,2.3-1.8,4-2.2c-0.6-0.3-1.1-0.7-1.6-1.3c-0.4-0.6-0.6-1.3-0.6-2.1
			c0-0.9,0.2-1.7,0.7-2.3c0.5-0.7,1.2-1.3,2.2-1.9c-1.3-0.5-2.3-1.4-3.1-2.6c-0.8-1.2-1.2-2.7-1.2-4.3c0-2.7,0.8-4.7,2.4-6.2
			c1.6-1.4,3.9-2.2,6.8-2.2c1.3,0,2.4,0.1,3.4,0.4H318.6z M299.2,68.3c0,1.3,0.6,2.3,1.7,3s2.7,1,4.8,1c3.1,0,5.4-0.5,6.9-1.4
			c1.5-0.9,2.2-2.2,2.2-3.8c0-1.3-0.4-2.2-1.2-2.7c-0.8-0.5-2.4-0.8-4.6-0.8h-4.4c-1.7,0-3,0.4-3.9,1.2S299.2,66.8,299.2,68.3z
			 M301.2,47.6c0,1.7,0.5,3,1.4,3.9c1,0.9,2.3,1.3,4,1.3c3.6,0,5.4-1.8,5.4-5.3c0-3.7-1.8-5.5-5.5-5.5c-1.7,0-3.1,0.5-4,1.4
			C301.7,44.4,301.2,45.8,301.2,47.6z"/>
		<path class="st9" d="M336,31.7h9.2c4.3,0,7.4,0.6,9.4,1.9c1.9,1.3,2.9,3.3,2.9,6.1c0,1.9-0.5,3.5-1.6,4.8
			c-1.1,1.3-2.6,2.1-4.7,2.4v0.2c4.9,0.8,7.4,3.4,7.4,7.8c0,2.9-1,5.2-2.9,6.8c-2,1.6-4.7,2.4-8.2,2.4H336V31.7z M339.8,45.6h6.2
			c2.7,0,4.6-0.4,5.8-1.3s1.8-2.3,1.8-4.2c0-1.8-0.7-3.1-2-3.9s-3.4-1.2-6.2-1.2h-5.6V45.6z M339.8,48.8V61h6.8
			c2.6,0,4.6-0.5,5.9-1.5c1.3-1,2-2.6,2-4.8c0-2-0.7-3.5-2-4.5s-3.4-1.4-6.2-1.4H339.8z"/>
		<path class="st9" d="M376.1,39.4c1.1,0,2.1,0.1,2.9,0.3l-0.5,3.4c-1-0.2-1.9-0.3-2.7-0.3c-2,0-3.7,0.8-5.1,2.4
			c-1.4,1.6-2.1,3.6-2.1,6v13.1H365V39.8h3l0.4,4.5h0.2c0.9-1.6,2-2.8,3.3-3.7C373.2,39.8,374.6,39.4,376.1,39.4z"/>
		<path class="st9" d="M398.6,64.2l-0.7-3.5h-0.2c-1.2,1.5-2.4,2.6-3.6,3.1s-2.7,0.8-4.5,0.8c-2.4,0-4.3-0.6-5.7-1.9s-2.1-3-2.1-5.3
			c0-4.9,3.9-7.5,11.8-7.7l4.1-0.1v-1.5c0-1.9-0.4-3.3-1.2-4.2c-0.8-0.9-2.1-1.4-4-1.4c-2,0-4.3,0.6-6.9,1.9l-1.1-2.8
			c1.2-0.7,2.5-1.2,3.9-1.5c1.4-0.4,2.9-0.6,4.3-0.6c2.9,0,5.1,0.6,6.5,1.9c1.4,1.3,2.1,3.4,2.1,6.2v16.6H398.6z M390.3,61.6
			c2.3,0,4.1-0.6,5.4-1.9c1.3-1.3,2-3,2-5.3v-2.2l-3.7,0.2c-2.9,0.1-5.1,0.6-6.4,1.4c-1.3,0.8-1.9,2.1-1.9,3.8c0,1.3,0.4,2.4,1.2,3
			C387.7,61.2,388.8,61.6,390.3,61.6z"/>
		<path class="st9" d="M408.6,33.2c0-0.8,0.2-1.5,0.6-1.9c0.4-0.4,0.9-0.6,1.6-0.6c0.6,0,1.1,0.2,1.5,0.6c0.4,0.4,0.6,1,0.6,1.8
			s-0.2,1.5-0.6,1.9c-0.4,0.4-0.9,0.6-1.5,0.6c-0.6,0-1.1-0.2-1.6-0.6C408.9,34.6,408.6,34,408.6,33.2z M412.6,64.2H409V39.8h3.7
			V64.2z"/>
		<path class="st9" d="M437.2,64.2V48.4c0-2-0.5-3.5-1.4-4.5c-0.9-1-2.3-1.5-4.3-1.5c-2.6,0-4.4,0.7-5.6,2.1
			c-1.2,1.4-1.8,3.7-1.8,6.8v12.8h-3.7V39.8h3l0.6,3.3h0.2c0.8-1.2,1.8-2.1,3.2-2.8c1.4-0.7,2.9-1,4.6-1c2.9,0,5.1,0.7,6.6,2.1
			c1.5,1.4,2.2,3.7,2.2,6.8v15.9H437.2z"/>
		<path class="st9" d="M448.1,33.2c0-0.8,0.2-1.5,0.6-1.9c0.4-0.4,0.9-0.6,1.6-0.6c0.6,0,1.1,0.2,1.5,0.6c0.4,0.4,0.6,1,0.6,1.8
			s-0.2,1.5-0.6,1.9c-0.4,0.4-0.9,0.6-1.5,0.6c-0.6,0-1.1-0.2-1.6-0.6C448.3,34.6,448.1,34,448.1,33.2z M452.1,64.2h-3.7V39.8h3.7
			V64.2z"/>
		<path class="st9" d="M475,64.2l-0.7-3.5h-0.2c-1.2,1.5-2.4,2.6-3.6,3.1c-1.2,0.5-2.7,0.8-4.5,0.8c-2.4,0-4.3-0.6-5.7-1.9
			s-2.1-3-2.1-5.3c0-4.9,3.9-7.5,11.8-7.7l4.1-0.1v-1.5c0-1.9-0.4-3.3-1.2-4.2c-0.8-0.9-2.1-1.4-3.9-1.4c-2,0-4.3,0.6-6.9,1.9
			l-1.1-2.8c1.2-0.7,2.5-1.2,4-1.5c1.4-0.4,2.9-0.6,4.3-0.6c2.9,0,5.1,0.6,6.5,1.9c1.4,1.3,2.1,3.4,2.1,6.2v16.6H475z M466.6,61.6
			c2.3,0,4.1-0.6,5.4-1.9c1.3-1.3,2-3,2-5.3v-2.2l-3.7,0.2c-2.9,0.1-5.1,0.6-6.4,1.4s-1.9,2.1-1.9,3.8c0,1.3,0.4,2.4,1.2,3
			C464,61.2,465.2,61.6,466.6,61.6z"/>
		<path class="st9" d="M495.1,64.6c-3.5,0-6.3-1.1-8.2-3.3c-1.9-2.2-2.9-5.2-2.9-9.2c0-4.1,1-7.2,2.9-9.5s4.8-3.3,8.4-3.3
			c1.2,0,2.3,0.1,3.5,0.4s2.1,0.5,2.8,0.9l-1.1,3.1c-0.8-0.3-1.7-0.6-2.7-0.8c-1-0.2-1.8-0.3-2.6-0.3c-5,0-7.4,3.2-7.4,9.5
			c0,3,0.6,5.3,1.8,6.9c1.2,1.6,3,2.4,5.4,2.4c2,0,4.1-0.4,6.3-1.3v3.3C499.6,64.2,497.5,64.6,495.1,64.6z"/>
		<path class="st9" d="M522.7,57.5c0,2.3-0.8,4-2.5,5.3c-1.7,1.2-4.1,1.8-7.1,1.8c-3.2,0-5.8-0.5-7.6-1.5v-3.4
			c1.2,0.6,2.4,1.1,3.8,1.4c1.3,0.3,2.6,0.5,3.9,0.5c1.9,0,3.4-0.3,4.5-0.9c1-0.6,1.6-1.6,1.6-2.8c0-0.9-0.4-1.8-1.2-2.4
			c-0.8-0.7-2.4-1.5-4.8-2.4c-2.3-0.8-3.9-1.6-4.8-2.2c-1-0.6-1.7-1.3-2.1-2.1c-0.5-0.8-0.7-1.8-0.7-2.9c0-2,0.8-3.6,2.4-4.7
			c1.6-1.1,3.8-1.7,6.7-1.7c2.6,0,5.2,0.5,7.7,1.6l-1.3,3c-2.4-1-4.7-1.5-6.7-1.5c-1.8,0-3.1,0.3-4,0.8c-0.9,0.5-1.3,1.3-1.3,2.3
			c0,0.7,0.2,1.2,0.5,1.7c0.3,0.5,0.9,0.9,1.6,1.3c0.7,0.4,2.2,1,4.3,1.8c2.9,1.1,4.8,2.1,5.9,3.2C522.2,54.6,522.7,55.9,522.7,57.5
			z"/>
	</g>
</g>
</svg>
